<?xml version="1.0" encoding="UTF-8"?>
<svg id="Layer_2" data-name="Layer 2" xmlns="http://www.w3.org/2000/svg" viewBox="0 0 2060.66 1199.81">
  <g id="logo">
    <g id="text">
      <g>
        <path d="M1285.08,438.96h67.14c-1.79,23.77-8.38,44.8-19.78,63.11-11.39,18.31-27.26,32.68-47.61,43.09-20.35,10.42-45.01,15.62-73.97,15.62-22.3,0-42.36-3.95-60.18-11.84s-33.04-19.2-45.65-33.94c-12.62-14.73-22.26-32.47-28.93-53.22-6.68-20.75-10.01-44.07-10.01-69.95v-27.1c0-25.88,3.42-49.23,10.25-70.07,6.84-20.83,16.64-38.61,29.42-53.34,12.78-14.73,28.16-26.08,46.14-34.06,17.98-7.97,38.12-11.96,60.42-11.96,28.97,0,53.47,5.33,73.49,15.99,20.02,10.66,35.56,25.27,46.63,43.82,11.07,18.55,17.74,39.88,20.02,63.96h-67.14c-1.3-14.97-4.52-27.67-9.64-38.09-5.13-10.41-12.78-18.35-22.95-23.8-10.17-5.45-23.64-8.18-40.41-8.18-13.02,0-24.46,2.44-34.3,7.32-9.85,4.88-18.03,12.17-24.54,21.85-6.51,9.69-11.39,21.73-14.65,36.13-3.26,14.4-4.88,31.05-4.88,49.93v27.59c0,18.07,1.46,34.26,4.39,48.58,2.93,14.32,7.48,26.45,13.67,36.38,6.18,9.93,14.16,17.5,23.93,22.71,9.77,5.21,21.4,7.81,34.91,7.81,16.44,0,29.82-2.6,40.16-7.81,10.33-5.21,18.23-12.86,23.68-22.95,5.45-10.09,8.91-22.62,10.38-37.6Z"/>
        <path d="M1683.97,411.37c-6.19-12.53-15.75-22.78-28.69-30.76-6.27-3.86-13.42-6.81-21.47-8.84,3.43-1.37,6.68-2.9,9.75-4.59,13.92-7.65,24.25-17.61,31.01-29.9,6.75-12.29,10.13-25.76,10.13-40.41,0-16.6-2.89-30.92-8.66-42.97-5.78-12.04-14.21-22.05-25.27-30.03-11.07-7.97-24.54-13.87-40.41-17.7-15.87-3.82-33.89-5.74-54.07-5.74h-122.32v355.47h133.3c26.69,0,49.44-3.9,68.24-11.72,18.8-7.81,33.12-19.44,42.97-34.91,9.84-15.46,14.77-34.58,14.77-57.37,0-14.48-3.1-27.99-9.28-40.53ZM1501.11,253.41h55.18c13.99,0,25.55,1.67,34.66,5.01,9.12,3.34,15.83,8.59,20.14,15.75,4.31,7.16,6.47,16.44,6.47,27.83,0,10.25-2.32,18.96-6.95,26.12-4.64,7.16-11.44,12.62-20.39,16.36-8.95,3.74-20.1,5.61-33.45,5.61h-55.66v-96.68ZM1619.88,478.39c-4.31,7.73-10.82,13.79-19.53,18.19-8.71,4.39-19.73,6.59-33.08,6.59h-66.16v-105.71h69.09c13.35,0,24.13,2.19,32.35,6.59,8.22,4.39,14.24,10.66,18.07,18.8,3.82,8.14,5.73,17.74,5.73,28.81,0,10.09-2.16,19-6.47,26.73Z"/>
        <path d="M1834.82,200.43l71.04,126.71,71.29-126.71h77.15l-105.47,176.27,108.15,179.2h-77.88l-73.24-129.15-73,129.15h-78.12l108.15-179.2-105.47-176.27h77.39Z"/>
      </g>
      <g>
        <path d="M1262.63,853.68v114.01c-3.36,4.48-8.43,10.08-15.22,16.8-6.79,6.72-16.27,12.67-28.45,17.85s-28.13,7.77-47.87,7.77c-15.82,0-30.27-2.66-43.36-7.98-13.09-5.32-24.36-13.33-33.8-24.04-9.45-10.71-16.76-24.07-21.94-40.1-5.18-16.03-7.77-34.82-7.77-56.38v-57.32c0-21.42,2.17-40.17,6.51-56.27,4.34-16.09,10.81-29.46,19.42-40.1,8.61-10.64,19.32-18.61,32.12-23.94,12.81-5.32,27.75-7.98,44.83-7.98,19.74,0,36.53,3.71,50.39,11.13,13.86,7.42,24.6,18.13,32.23,32.12,7.63,14,11.93,30.79,12.91,50.39h-38.63c-.98-12.6-3.64-23.41-7.98-32.44-4.34-9.03-10.5-15.96-18.48-20.79-7.98-4.83-18.13-7.24-30.44-7.24s-21.7,1.96-29.81,5.88c-8.12,3.92-14.73,9.8-19.84,17.64-5.11,7.84-8.82,17.71-11.13,29.6-2.31,11.9-3.46,25.76-3.46,41.57v57.74c0,16.24,1.61,30.38,4.83,42.41,3.22,12.04,7.8,21.98,13.75,29.81,5.95,7.84,13.12,13.68,21.52,17.53,8.4,3.85,17.85,5.77,28.34,5.77,11.9,0,21.27-1.26,28.13-3.78,6.86-2.52,12.14-5.39,15.85-8.61,3.71-3.22,6.68-5.81,8.92-7.77v-70.55h-56.06v-32.75h94.48Z"/>
        <path d="M1420.46,813.58c-3.08-.7-5.85-1.15-8.29-1.37-2.45-.2-5.29-.31-8.51-.31-7,0-13.12,1.4-18.37,4.2s-9.76,6.72-13.54,11.76c-3.22,4.29-5.88,9.27-7.98,14.94v163.1h-37.16v-227.17h35.9l.8,22.77c4.39-8.01,9.82-14.38,16.31-19.1,7.21-5.25,15.85-7.87,25.93-7.87,2.24,0,5.01.31,8.3.94,3.28.63,5.42,1.3,6.4,2l.21,36.11Z"/>
        <path d="M1452.11,903.23v-21.63c0-17.64,2.24-33.14,6.72-46.51,4.48-13.37,10.71-24.53,18.69-33.49,7.98-8.96,17.29-15.71,27.92-20.26,10.64-4.55,22.05-6.82,34.22-6.82s24,2.28,34.64,6.82c10.64,4.55,19.98,11.3,28.03,20.26,8.05,8.96,14.31,20.12,18.79,33.49,4.48,13.37,6.72,28.87,6.72,46.51v21.63c0,17.64-2.24,33.14-6.72,46.51-4.48,13.37-10.71,24.53-18.69,33.49-7.98,8.96-17.29,15.68-27.92,20.16-10.64,4.48-22.12,6.72-34.43,6.72s-23.8-2.24-34.43-6.72c-10.64-4.48-19.98-11.2-28.03-20.16-8.05-8.96-14.31-20.12-18.79-33.49-4.48-13.37-6.72-28.87-6.72-46.51ZM1489.27,881.6v21.63c0,12.46,1.26,23.38,3.78,32.75,2.52,9.38,6.09,17.22,10.71,23.52s10.01,11.02,16.17,14.17c6.16,3.15,12.88,4.72,20.16,4.72,8.4,0,15.78-1.58,22.15-4.72,6.37-3.15,11.65-7.87,15.85-14.17s7.35-14.14,9.45-23.52c2.1-9.38,3.15-20.29,3.15-32.75v-21.63c0-12.46-1.26-23.34-3.78-32.65-2.52-9.31-6.09-17.15-10.71-23.52-4.62-6.37-10.04-11.13-16.27-14.28-6.23-3.15-12.98-4.72-20.26-4.72s-13.79,1.57-19.95,4.72c-6.16,3.15-11.51,7.91-16.06,14.28-4.55,6.37-8.08,14.21-10.6,23.52-2.52,9.31-3.78,20.19-3.78,32.65Z"/>
        <path d="M1834.17,778.73v227.17h-35.27l-.72-19.89c-5.19,6.69-11.53,12.09-19.02,16.22-9.52,5.25-21.2,7.87-35.06,7.87-9.38,0-17.88-1.61-25.51-4.83-7.63-3.21-14.21-8.18-19.74-14.9-5.53-6.72-9.79-15.47-12.8-26.25-3.01-10.78-4.52-23.72-4.52-38.84v-146.55h36.96v146.97c0,10.22.9,18.65,2.73,25.3,1.81,6.65,4.26,11.9,7.34,15.75,3.08,3.85,6.51,6.54,10.29,8.08,3.78,1.54,7.63,2.31,11.55,2.31,13.16,0,23.65-3.18,31.49-9.55,6.61-5.37,11.65-12.33,15.12-20.89v-167.97h37.16Z"/>
        <path d="M2055.83,833.63c-3.22-13.51-8.01-24.63-14.38-33.38-6.37-8.75-14.21-15.22-23.51-19.42-9.31-4.2-20.05-6.3-32.23-6.3s-22.02,2.38-30.76,7.14c-8.75,4.76-16.1,11.65-22.05,20.68l-.72,1.11-1.9-24.73h-33.81v314.52h37.17v-109.06c5.85,8.31,13.02,14.67,21.52,19.09,8.74,4.55,19.07,6.82,30.97,6.82s22.46-2.2,31.7-6.61c9.24-4.41,17.04-11.06,23.41-19.95,6.37-8.88,11.2-20.01,14.49-33.38,3.29-13.37,4.93-29.01,4.93-46.93v-21.2c0-18.76-1.61-34.89-4.83-48.4ZM2023.5,903.23c0,12.6-.94,23.62-2.83,33.07-1.89,9.45-4.83,17.29-8.82,23.52-3.99,6.23-9.07,10.88-15.22,13.96-6.17,3.08-13.51,4.62-22.05,4.62-10.22,0-18.65-2.45-25.3-7.35-6.53-4.81-11.75-11.08-15.64-18.8v-118.11c1.86-3.48,3.96-6.73,6.3-9.75,4.05-5.25,8.92-9.41,14.59-12.49,5.67-3.08,12.21-4.62,19.63-4.62,8.68,0,16.09,1.54,22.26,4.62,6.15,3.08,11.26,7.7,15.32,13.86,4.06,6.16,7.04,13.93,8.93,23.3,1.89,9.38,2.83,20.37,2.83,32.97v21.2Z"/>
      </g>
    </g>
    <g id="icon">
      <g id="left">
        <path d="M468.28,874.27c10.15,10.87,12.32,18.85,0,42.04-12.32,23.19-41.32,83.36-54.36,110.9-13.05,27.54-26.82,18.12-51.46-7.97-24.64-26.09-286.7-317.05-286.7-317.05l133.04-124.37s249.34,285.58,259.49,296.46Z"/>
        <path d="M234.88,877.89s-157.23-171.66-200.72-222.39c-60.95-71.11-33.4-94.36,28.21-166.84C123.98,416.17,456.56,37.88,478.43,14.62c101.48-108-134.82,410.98-222.52,619.73-59.18,140.87-43.49,216.72-21.02,243.54Z"/>
      </g>
      <g id="right">
        <path d="M485.64,325.55c-10.15-10.87-12.32-18.85,0-42.04,12.32-23.19,41.32-83.36,54.36-110.9,13.05-27.54,26.82-18.12,51.46,7.97,24.64,26.09,286.7,317.05,286.7,317.05l-133.04,124.37s-249.34-285.58-259.49-296.46Z"/>
        <path d="M719.03,321.92s157.23,171.66,200.72,222.39c60.95,71.11,33.4,94.36-28.21,166.84-61.61,72.48-394.19,450.77-416.05,474.04-101.48,108,134.82-410.98,222.52-619.73,59.18-140.87,43.49-216.72,21.02-243.54Z"/>
      </g>
    </g>
  </g>
</svg>