<?xml version="1.0" encoding="UTF-8"?>
<svg id="Layer_2" data-name="Layer 2" xmlns="http://www.w3.org/2000/svg" viewBox="0 0 953.91 1199.81">
  <g id="logo">
    <g id="icon">
      <g id="left">
        <path d="M468.28,874.27c10.15,10.87,12.32,18.85,0,42.04-12.32,23.19-41.32,83.36-54.36,110.9-13.05,27.54-26.82,18.12-51.46-7.97-24.64-26.09-286.7-317.05-286.7-317.05l133.04-124.37s249.34,285.58,259.49,296.46Z"/>
        <path d="M234.88,877.89s-157.23-171.66-200.72-222.39c-60.95-71.11-33.4-94.36,28.21-166.84C123.98,416.17,456.56,37.88,478.43,14.62c101.48-108-134.82,410.98-222.52,619.73-59.18,140.87-43.49,216.72-21.02,243.54Z"/>
      </g>
      <g id="right">
        <path d="M485.64,325.55c-10.15-10.87-12.32-18.85,0-42.04,12.32-23.19,41.32-83.36,54.36-110.9,13.05-27.54,26.82-18.12,51.46,7.97,24.64,26.09,286.7,317.05,286.7,317.05l-133.04,124.37s-249.34-285.58-259.49-296.46Z"/>
        <path d="M719.03,321.92s157.23,171.66,200.72,222.39c60.95,71.11,33.4,94.36-28.21,166.84-61.61,72.48-394.19,450.77-416.05,474.04-101.48,108,134.82-410.98,222.52-619.73,59.18-140.87,43.49-216.72,21.02-243.54Z"/>
      </g>
    </g>
  </g>
</svg>